<?xml version="1.0" encoding="utf-8"?>
<!-- Generator: Adobe Illustrator 16.0.3, SVG Export Plug-In . SVG Version: 6.00 Build 0)  -->
<!DOCTYPE svg PUBLIC "-//W3C//DTD SVG 1.1//EN" "http://www.w3.org/Graphics/SVG/1.1/DTD/svg11.dtd">
<svg version="1.1" id="Layer_1" xmlns="http://www.w3.org/2000/svg" xmlns:xlink="http://www.w3.org/1999/xlink" x="0px" y="0px"
	 width="36px" height="36px" viewBox="0 0 36 36" enable-background="new 0 0 36 36" xml:space="preserve">
<path fill="#231E1B" d="M18,2.112c-8.995,0-16.289,7.293-16.289,16.29c0,7.197,4.667,13.303,11.141,15.457
	c0.814,0.148,1.112-0.354,1.112-0.785c0-0.387-0.014-1.411-0.022-2.771c-4.531,0.985-5.487-2.183-5.487-2.183
	c-0.741-1.882-1.809-2.384-1.809-2.384c-1.479-1.01,0.112-0.989,0.112-0.989c1.635,0.114,2.495,1.679,2.495,1.679
	c1.453,2.489,3.813,1.771,4.741,1.354c0.148-1.053,0.569-1.771,1.034-2.178c-3.617-0.41-7.42-1.809-7.42-8.051
	c0-1.778,0.635-3.232,1.677-4.371c-0.167-0.412-0.727-2.068,0.16-4.311c0,0,1.368-0.438,4.479,1.67
	c1.299-0.361,2.693-0.542,4.078-0.548c1.383,0.006,2.776,0.187,4.078,0.548c3.11-2.108,4.476-1.67,4.476-1.67
	c0.889,2.243,0.329,3.899,0.161,4.311c1.044,1.139,1.675,2.593,1.675,4.371c0,6.258-3.81,7.635-7.438,8.039
	c0.585,0.503,1.106,1.497,1.106,3.017c0,2.179-0.021,3.936-0.021,4.47c0,0.437,0.293,0.942,1.12,0.782
	c6.467-2.157,11.13-8.26,11.13-15.454C34.291,9.406,26.997,2.112,18,2.112z"/>
</svg>
