<?xml version="1.0" encoding="utf-8"?>
<!-- Generator: Adobe Illustrator 16.0.4, SVG Export Plug-In . SVG Version: 6.00 Build 0)  -->
<!DOCTYPE svg PUBLIC "-//W3C//DTD SVG 1.1//EN" "http://www.w3.org/Graphics/SVG/1.1/DTD/svg11.dtd">
<svg version="1.1" id="Layer_1" xmlns="http://www.w3.org/2000/svg" xmlns:xlink="http://www.w3.org/1999/xlink" x="0px" y="0px"
	 width="50px" height="50px" viewBox="480 0 50 50" enable-background="new 480 0 50 50" xml:space="preserve">
<path d="M45.183,1H4.818C2.637,1,1,2.638,1,4.82v40.361C1,47.362,2.637,49,4.818,49h40.365C46.819,49,49,47.362,49,45.182V4.82
	C49,2.638,46.819,1,45.183,1z M38.637,27.727H27.728v10.911c0,3.815-5.455,3.815-5.455,0V27.727H10.818
	c-3.272,0-3.272-5.453,0-5.453h11.454V10.818c0-3.271,5.455-3.271,5.455,0v11.456h10.909C42.456,22.273,42.456,27.727,38.637,27.727
	z"/>
<path d="M525.182,1h-40.366C482.633,1,481,2.637,481,4.818v40.365c0,1.637,1.633,3.817,3.815,3.817h40.366
	c2.183,0,3.818-2.181,3.818-3.817V4.818C529,2.637,527.364,1,525.182,1z M509.361,14.091c0,6-8.726,6-8.726,0
	C500.636,8.091,509.361,8.091,509.361,14.091z M500.636,35.909c0-5.999,8.726-5.999,8.726,0
	C509.361,41.91,500.636,41.91,500.636,35.909z M514.271,27.728h-18.544c-3.276,0-3.276-5.455,0-5.455h18.544
	C518.09,22.272,518.09,27.728,514.271,27.728z"/>
<path d="M365.182,1h-40.363C322.637,1,321,2.637,321,4.818v40.365c0,1.637,1.637,3.817,3.818,3.817h40.363
	c1.637,0,3.818-2.181,3.818-3.817V4.818C369,2.637,366.818,1,365.182,1z M359.728,35.909c2.728,2.727-1.091,6.545-3.818,3.818
	L345,28.818l-11.454,10.909c-2.183,2.727-6.001-1.092-3.817-3.818L341.182,25l-11.453-11.455c-2.184-2.182,1.635-6,3.817-3.819
	L345,21.182l10.909-11.455c2.728-2.182,6.546,1.637,3.818,3.819L348.818,25L359.728,35.909z"/>
<path d="M205.182,1h-40.366C162.633,1,161,2.638,161,4.82v40.361c0,2.181,1.633,3.818,3.815,3.818h40.366
	c2.183,0,3.818-1.638,3.818-3.818V4.82C209,2.638,207.364,1,205.182,1z M194.271,27.727h-18.544c-3.276,0-3.276-5.453,0-5.453
	h18.544C198.09,22.273,198.09,27.727,194.271,27.727z"/>
</svg>
