<svg xmlns="http://www.w3.org/2000/svg" xmlns:xlink="http://www.w3.org/1999/xlink" xml:space="preserve" version="1.1" style="shape-rendering:geometricPrecision;text-rendering:geometricPrecision;image-rendering:optimizeQuality;" viewBox="0 0 195 238.75" x="0px" y="0px" fill-rule="evenodd" clip-rule="evenodd"><defs><style type="text/css">
   
    .fil1 {fill:none}
    .fil0 {fill:black}
   
  </style></defs><g><path class="fil0" d="M114 88l74 0c4,0 7,-4 7,-7l0 -74c0,-4 -3,-7 -7,-7l-74 0c-4,0 -7,3 -7,7l0 74c0,3 3,7 7,7zm20 -39c-6,0 -6,-10 0,-10l34 0c7,0 7,10 0,10l-34 0zm25 15c0,-11 -16,-11 -16,0 0,11 16,11 16,0zm0 -40c0,11 -16,11 -16,0 0,-11 16,-11 16,0z"/><path class="fil0" d="M7 88l74 0c3,0 7,-4 7,-7l0 -74c0,-4 -4,-7 -7,-7l-74 0c-4,0 -7,3 -7,7l0 74c0,3 3,7 7,7zm64 -24c5,5 -2,12 -7,7l-20 -20 -21 20c-4,5 -11,-2 -7,-7l21 -20 -21 -21c-4,-4 3,-11 7,-7l21 21 20 -21c5,-4 12,3 7,7l-20 21 20 20z"/><line class="fil1" x1="68" y1="68" x2="20" y2="20"/><line class="fil1" x1="68" y1="20" x2="20" y2="68"/><path class="fil0" d="M114 191l74 0c4,0 7,-3 7,-7l0 -74c0,-4 -3,-7 -7,-7l-74 0c-4,0 -7,3 -7,7l0 74c0,4 3,7 7,7zm20 -39c-6,0 -6,-10 0,-10l34 0c7,0 7,10 0,10l-34 0z"/><path class="fil0" d="M7 191l74 0c3,0 7,-3 7,-7l0 -74c0,-4 -4,-7 -7,-7l-74 0c-4,0 -7,3 -7,7l0 74c0,4 3,7 7,7zm62 -49c7,0 7,10 0,10l-20 0 0 20c0,7 -10,7 -10,0l0 -20 -21 0c-6,0 -6,-10 0,-10l21 0 0 -21c0,-6 10,-6 10,0l0 21 20 0z"/><line class="fil1" x1="69" y1="147" x2="18" y2="147"/><line class="fil1" x1="44" y1="121" x2="44" y2="172"/></g><text x="0" y="206" fill="#000000" font-size="5px" font-weight="bold" font-family="'Helvetica Neue', Helvetica, Arial-Unicode, Arial, Sans-serif">Created by Leona Grande</text><text x="0" y="211" fill="#000000" font-size="5px" font-weight="bold" font-family="'Helvetica Neue', Helvetica, Arial-Unicode, Arial, Sans-serif">from the Noun Project</text></svg>