<?xml version="1.0" encoding="utf-8"?>
<!-- Generator: Adobe Illustrator 16.0.4, SVG Export Plug-In . SVG Version: 6.00 Build 0)  -->
<!DOCTYPE svg PUBLIC "-//W3C//DTD SVG 1.1//EN" "http://www.w3.org/Graphics/SVG/1.1/DTD/svg11.dtd">
<svg version="1.1" id="Layer_1" xmlns="http://www.w3.org/2000/svg" xmlns:xlink="http://www.w3.org/1999/xlink" x="0px" y="0px"
	 width="50px" height="50px" viewBox="0 0 50 50" enable-background="new 0 0 50 50" xml:space="preserve">
<path d="M45.182,1H4.82C2.637,1,1,2.637,1,4.818v40.366C1,46.82,2.637,49,4.819,49h40.363C46.818,49,49,46.818,49,45.184V4.818
	C49,2.637,46.818,1,45.182,1z M39.729,35.909c2.729,2.727-1.092,6.545-3.818,3.817L25,28.818L13.546,39.727
	c-2.183,2.728-6.001-1.092-3.817-3.817L21.182,25L9.729,13.545c-2.184-2.182,1.636-6,3.817-3.819L25,21.182L35.91,9.727
	c2.727-2.182,6.545,1.637,3.816,3.819L28.818,25L39.729,35.909z"/>
</svg>
