<?xml version="1.0" encoding="utf-8"?>
<!-- Generator: Adobe Illustrator 16.0.4, SVG Export Plug-In . SVG Version: 6.00 Build 0)  -->
<!DOCTYPE svg PUBLIC "-//W3C//DTD SVG 1.1//EN" "http://www.w3.org/Graphics/SVG/1.1/DTD/svg11.dtd">
<svg version="1.1" id="Layer_1" xmlns="http://www.w3.org/2000/svg" xmlns:xlink="http://www.w3.org/1999/xlink" x="0px" y="0px"
	 width="50px" height="50px" viewBox="0 0 50 50" enable-background="new 0 0 50 50" xml:space="preserve">
<path d="M45.182,1H4.817C2.633,1,1,2.637,1,4.818v40.366C1,46.82,2.633,49,4.816,49h40.366C47.365,49,49,46.818,49,45.184V4.818
	C49,2.637,47.365,1,45.182,1z M29.361,14.091c0,6-8.726,6-8.726,0C20.636,8.091,29.361,8.091,29.361,14.091z M20.636,35.909
	c0-5.999,8.727-5.999,8.727,0C29.361,41.91,20.636,41.91,20.636,35.909z M34.271,27.729H15.727c-3.275,0-3.275-5.456,0-5.456h18.544
	C38.09,22.272,38.09,27.729,34.271,27.729z"/>
</svg>
