<?xml version="1.0" encoding="utf-8"?>
<!-- Generator: Adobe Illustrator 16.0.4, SVG Export Plug-In . SVG Version: 6.00 Build 0)  -->
<!DOCTYPE svg PUBLIC "-//W3C//DTD SVG 1.1//EN" "http://www.w3.org/Graphics/SVG/1.1/DTD/svg11.dtd">
<svg version="1.1" id="Layer_1" xmlns="http://www.w3.org/2000/svg" xmlns:xlink="http://www.w3.org/1999/xlink" x="0px" y="0px"
	 width="50px" height="50px" viewBox="0 0 50 50" enable-background="new 0 0 50 50" xml:space="preserve">
<path d="M45.184,1H4.818C2.637,1,1,2.638,1,4.82v40.362C1,47.361,2.637,49,4.818,49h40.366C46.818,49,49,47.361,49,45.182V4.82
	C49,2.638,46.818,1,45.184,1z M38.637,27.727H27.729v10.912c0,3.814-5.456,3.814-5.456,0V27.727H10.818
	c-3.272,0-3.272-5.453,0-5.453h11.454V10.818c0-3.271,5.455-3.271,5.455,0v11.456h10.91C42.456,22.273,42.456,27.727,38.637,27.727z
	"/>
</svg>
