<?xml version="1.0" encoding="utf-8"?>
<!-- Generator: Adobe Illustrator 16.0.4, SVG Export Plug-In . SVG Version: 6.00 Build 0)  -->
<!DOCTYPE svg PUBLIC "-//W3C//DTD SVG 1.1//EN" "http://www.w3.org/Graphics/SVG/1.1/DTD/svg11.dtd">
<svg version="1.1" id="Layer_1" xmlns="http://www.w3.org/2000/svg" xmlns:xlink="http://www.w3.org/1999/xlink" x="0px" y="0px"
	 width="150px" height="150px" viewBox="0 0 150 150" enable-background="new 0 0 150 150" xml:space="preserve">
<g>
	<path fill="#FFEB3B" d="M139.975,5H86.846c-2.873,0-5.021,2.199-5.021,5.13v54.242c0,2.199,2.148,5.13,5.021,5.13h53.129
		c2.873,0,5.025-2.931,5.025-5.13V10.13C145,7.199,142.848,5,139.975,5z M119.15,22.592c0,8.063-11.482,8.063-11.482,0
		S119.15,14.529,119.15,22.592z M107.668,51.912c0-8.063,11.482-8.063,11.482,0S107.668,59.975,107.668,51.912z M125.611,40.916
		h-24.404c-4.312,0-4.312-7.33,0-7.33h24.404C130.641,33.586,130.641,40.916,125.611,40.916z"/>
	<path fill="#CDDC39" d="M63.154,5H10.025C7.154,5,5,7.199,5,10.13v54.242c0,2.199,2.154,5.13,5.025,5.13h53.129
		c2.154,0,5.025-2.931,5.025-5.13V10.13C68.179,7.199,65.308,5,63.154,5z M55.974,51.912c3.591,3.664-1.436,8.794-5.025,5.13
		L36.59,42.382l-15.077,14.66c-2.873,3.664-7.897-1.466-5.025-5.13l15.077-14.66L16.488,21.859
		c-2.873-2.933,2.152-8.063,5.025-5.132L36.59,32.12l14.359-15.393c3.589-2.931,8.616,2.2,5.025,5.132L41.615,37.252L55.974,51.912z
		"/>
	<path fill="#8BC34A" d="M139.975,80.496H86.846c-2.873,0-5.021,2.201-5.021,5.134v54.239c0,2.93,2.148,5.131,5.021,5.131h53.129
		c2.873,0,5.025-2.201,5.025-5.131V85.63C145,82.697,142.848,80.496,139.975,80.496z M125.611,116.412h-24.404
		c-4.312,0-4.312-7.328,0-7.328h24.404C130.641,109.084,130.641,116.412,125.611,116.412z"/>
	<path fill="#388E3C" d="M63.154,80.496H10.025C7.154,80.496,5,82.697,5,85.63v54.239c0,2.93,2.154,5.131,5.025,5.131h53.129
		c2.154,0,5.025-2.201,5.025-5.131V85.63C68.179,82.697,65.308,80.496,63.154,80.496z M54.538,116.412H40.179v14.663
		c0,5.127-7.18,5.127-7.18,0v-14.663H17.922c-4.307,0-4.307-7.328,0-7.328H33V93.689c0-4.396,7.18-4.396,7.18,0v15.395h14.358
		C59.565,109.084,59.565,116.412,54.538,116.412z"/>
</g>
</svg>
